
<svg width="132" height="132" viewBox="0 0 132 132" fill="none" xmlns="http://www.w3.org/2000/svg">
<rect width="132" height="132" rx="66" fill="#BA1A1A" fill-opacity="0.12"/>
<rect x="8" y="8" width="116" height="116" rx="58" fill="#BA1A1A"/>
<path d="M87 51.9533C79.23 51.1833 71.4133 50.7866 63.62 50.7866C59 50.7866 54.38 51.02 49.76 51.4866L45 51.9533" stroke="white" stroke-width="6" stroke-linecap="round" stroke-linejoin="round"/>
<path d="M57.834 49.5965L58.3473 46.5398C58.7207 44.3232 59.0007 42.6665 62.944 42.6665H69.0573C73.0007 42.6665 73.304 44.4165 73.654 46.5632L74.1673 49.5965" stroke="white" stroke-width="6" stroke-linecap="round" stroke-linejoin="round"/>
<path d="M81.9842 59.3271L80.4676 82.8238C80.2109 86.4871 80.0009 89.3338 73.4909 89.3338H58.5109C52.0009 89.3338 51.7909 86.4871 51.5342 82.8238L50.0176 59.3271" stroke="white" stroke-width="6" stroke-linecap="round" stroke-linejoin="round"/>
<path d="M62.1035 76.5H69.8735" stroke="white" stroke-width="6" stroke-linecap="round" stroke-linejoin="round"/>
<path d="M60.166 67.1665H71.8327" stroke="white" stroke-width="6" stroke-linecap="round" stroke-linejoin="round"/>
</svg>
