
<svg width="40" height="40" viewBox="0 0 40 40" fill="none" xmlns="http://www.w3.org/2000/svg">
<rect width="40" height="40" rx="20" fill="#F2F2F2"/>
<g clip-path="url(#clip0_792_18330)">
<path d="M20.0521 9.51331C14.3051 9.50732 9.62034 14.1607 9.62034 19.8916C9.62034 21.8496 10.1678 23.7615 11.2157 25.4163C11.216 25.4168 11.2163 25.4173 11.2166 25.4178L11.3337 25.6054L10.389 29.0385L10.1592 29.8736L10.9973 29.6549L14.5532 28.727L14.734 28.8355L14.737 28.8373C16.3394 29.7846 18.1748 30.2811 20.0442 30.2871H20.0458H20.0516C25.798 30.2871 30.4828 25.6341 30.4828 19.903C30.4828 17.1291 29.3981 14.5209 27.4306 12.5568C25.4623 10.5919 22.8366 9.51344 20.0521 9.51331ZM20.0521 9.51331L20.0516 10.0133V9.51331C20.0517 9.51331 20.0519 9.51331 20.0521 9.51331ZM8.71243 31.2962L10.1783 25.9731L10.234 25.7709L10.1288 25.5894C9.12436 23.8578 8.59766 21.8973 8.60315 19.893V19.8916C8.60315 13.6112 13.7408 8.5 20.0516 8.5C23.1177 8.5 25.9933 9.68569 28.1511 11.8387L28.1516 11.8392C30.3154 13.9928 31.5055 16.8537 31.5 19.8964V19.8973C31.5 26.1776 26.3625 31.289 20.0458 31.289H20.0401C18.1236 31.289 16.2398 30.808 14.5648 29.9007L14.391 29.8065L14.1998 29.8567L8.71243 31.2962Z" stroke="black"/>
<path d="M9.13023 30.881L10.539 25.768L10.5949 25.5651L10.4889 25.3833C9.51938 23.7206 9.0097 21.8286 9.00966 19.8977C9.01524 13.845 13.9642 8.9165 20.0512 8.9165C23.0079 8.9165 25.775 10.0619 27.8589 12.1359C29.9422 14.2093 31.087 16.9677 31.087 19.9032C31.087 25.9555 26.1328 30.8842 20.0512 30.8842H20.0455C18.1978 30.8842 16.3827 30.4203 14.7707 29.5472L14.5972 29.4532L14.4062 29.5031L9.13023 30.881Z" stroke="black"/>
<path d="M20.0521 9.51331C14.3051 9.50732 9.62034 14.1607 9.62034 19.8916C9.62034 21.8496 10.1678 23.7615 11.2157 25.4163C11.216 25.4168 11.2163 25.4173 11.2166 25.4178L11.3337 25.6054L10.389 29.0385L10.1592 29.8736L10.9973 29.6549L14.5532 28.727L14.734 28.8355L14.737 28.8373C16.3394 29.7846 18.1748 30.2811 20.0442 30.2871H20.0458H20.0516C25.798 30.2871 30.4828 25.6341 30.4828 19.903C30.4828 17.1291 29.3981 14.5209 27.4306 12.5568C25.4623 10.5919 22.8366 9.51344 20.0521 9.51331ZM20.0521 9.51331L20.0516 10.0133V9.51331C20.0517 9.51331 20.0519 9.51331 20.0521 9.51331ZM8.71243 31.2962L10.1783 25.9731L10.234 25.7709L10.1288 25.5894C9.12436 23.8578 8.59766 21.8973 8.60315 19.893V19.8916C8.60315 13.6112 13.7408 8.5 20.0516 8.5C23.1177 8.5 25.9933 9.68569 28.1511 11.8387L28.1516 11.8392C30.3154 13.9928 31.5055 16.8537 31.5 19.8964V19.8973C31.5 26.1776 26.3625 31.289 20.0458 31.289H20.0401C18.1236 31.289 16.2398 30.808 14.5648 29.9007L14.391 29.8065L14.1998 29.8567L8.71243 31.2962Z" stroke="black"/>
<path d="M24.985 23.165C24.985 23.345 24.945 23.53 24.86 23.71C24.775 23.89 24.665 24.06 24.52 24.22C24.275 24.49 24.005 24.685 23.7 24.81C23.4 24.935 23.075 25 22.725 25C22.215 25 21.67 24.88 21.095 24.635C20.52 24.39 19.945 24.06 19.375 23.645C18.8 23.225 18.255 22.76 17.735 22.245C17.22 21.725 16.755 21.18 16.34 20.61C15.93 20.04 15.6 19.47 15.36 18.905C15.12 18.335 15 17.79 15 17.27C15 16.93 15.06 16.605 15.18 16.305C15.3 16 15.49 15.72 15.755 15.47C16.075 15.155 16.425 15 16.795 15C16.935 15 17.075 15.03 17.2 15.09C17.33 15.15 17.445 15.24 17.535 15.37L18.695 17.005C18.785 17.13 18.85 17.245 18.895 17.355C18.94 17.46 18.965 17.565 18.965 17.66C18.965 17.78 18.93 17.9 18.86 18.015C18.795 18.13 18.7 18.25 18.58 18.37L18.2 18.765C18.145 18.82 18.12 18.885 18.12 18.965C18.12 19.005 18.125 19.04 18.135 19.08C18.15 19.12 18.165 19.15 18.175 19.18C18.265 19.345 18.42 19.56 18.64 19.82C18.865 20.08 19.105 20.345 19.365 20.61C19.635 20.875 19.895 21.12 20.16 21.345C20.42 21.565 20.635 21.715 20.805 21.805C20.83 21.815 20.86 21.83 20.895 21.845C20.935 21.86 20.975 21.865 21.02 21.865C21.105 21.865 21.17 21.835 21.225 21.78L21.605 21.405C21.73 21.28 21.85 21.185 21.965 21.125C22.08 21.055 22.195 21.02 22.32 21.02C22.415 21.02 22.515 21.04 22.625 21.085C22.735 21.13 22.85 21.195 22.975 21.28L24.63 22.455C24.76 22.545 24.85 22.65 24.905 22.775C24.955 22.9 24.985 23.025 24.985 23.165Z" stroke="black" stroke-width="1.5" stroke-miterlimit="10"/>
</g>
<defs>
<clipPath id="clip0_792_18330">
<rect width="24" height="24" fill="white" transform="translate(8 8)"/>
</clipPath>
</defs>
</svg>
